<?xml version="1.0" encoding="UTF-8"?>
<svg xmlns="http://www.w3.org/2000/svg" xmlns:xlink="http://www.w3.org/1999/xlink" width="32pt" height="33pt" viewBox="0 0 32 33" version="1.1">
<g id="surface1">
<path style=" stroke:none;fill-rule:evenodd;fill:rgb(66.666667%,0%,0%);fill-opacity:1;" d="M 30.210938 6.851562 C 30.996094 7.882812 30.792969 9.347656 29.757812 10.128906 C 29.234375 10.523438 28.601562 10.667969 28.003906 10.582031 C 27.210938 10.46875 26.488281 10.65625 25.851562 11.136719 L 24.132812 12.429688 C 23.589844 12.839844 22.636719 11.566406 23.167969 11.167969 L 24.886719 9.871094 C 25.523438 9.390625 25.898438 8.746094 26.003906 7.960938 C 26.082031 7.363281 26.394531 6.792969 26.914062 6.402344 C 27.949219 5.621094 29.425781 5.824219 30.210938 6.851562 "/>
<path style=" stroke:none;fill-rule:evenodd;fill:rgb(66.666667%,0%,0%);fill-opacity:1;" d="M 30.871094 26.839844 C 30.15625 27.917969 28.695312 28.214844 27.613281 27.503906 C 27.066406 27.148438 26.71875 26.601562 26.601562 26.007812 C 26.445312 25.230469 26.027344 24.613281 25.359375 24.175781 L 23.558594 22.996094 C 22.992188 22.625 23.878906 21.304688 24.4375 21.667969 L 26.238281 22.851562 C 26.90625 23.289062 27.640625 23.425781 28.421875 23.261719 C 29.015625 23.136719 29.65625 23.242188 30.203125 23.597656 C 31.289062 24.308594 31.585938 25.761719 30.871094 26.839844 "/>
<path style=" stroke:none;fill-rule:evenodd;fill:rgb(66.666667%,0%,0%);fill-opacity:1;" d="M 2.199219 27.402344 C 1.441406 26.355469 1.683594 24.894531 2.738281 24.140625 C 3.269531 23.757812 3.90625 23.632812 4.503906 23.734375 C 5.292969 23.867188 6.019531 23.699219 6.671875 23.234375 L 8.421875 21.984375 C 8.972656 21.589844 9.894531 22.886719 9.355469 23.273438 L 7.601562 24.523438 C 6.953125 24.988281 6.558594 25.621094 6.433594 26.40625 C 6.339844 27 6.015625 27.5625 5.484375 27.941406 C 4.425781 28.695312 2.957031 28.453125 2.199219 27.402344 "/>
<path style=" stroke:none;fill-rule:evenodd;fill:rgb(66.666667%,0%,0%);fill-opacity:1;" d="M 0.167969 10.910156 C 0.648438 9.707031 2.015625 9.121094 3.222656 9.601562 C 3.832031 9.839844 4.28125 10.304688 4.519531 10.859375 C 4.832031 11.59375 5.363281 12.109375 6.109375 12.40625 L 8.113281 13.199219 C 8.742188 13.449219 8.140625 14.917969 7.523438 14.675781 L 5.519531 13.878906 C 4.773438 13.585938 4.027344 13.597656 3.296875 13.917969 C 2.738281 14.160156 2.089844 14.1875 1.484375 13.949219 C 0.277344 13.46875 -0.3125 12.109375 0.167969 10.910156 "/>
<path style=" stroke:none;fill-rule:evenodd;fill:rgb(66.666667%,0%,0%);fill-opacity:1;" d="M 16.339844 0 C 17.640625 0 18.691406 1.046875 18.691406 2.339844 C 18.691406 2.992188 18.425781 3.578125 17.996094 4.003906 C 17.425781 4.5625 17.136719 5.246094 17.136719 6.042969 L 17.136719 8.1875 C 17.136719 8.863281 15.542969 8.851562 15.542969 8.1875 L 15.542969 6.042969 C 15.542969 5.246094 15.253906 4.5625 14.6875 4.003906 C 14.253906 3.578125 13.988281 2.992188 13.988281 2.339844 C 13.988281 1.046875 15.039062 0 16.339844 0 "/>
<path style=" stroke:none;fill-rule:evenodd;fill:rgb(50.196078%,50.196078%,50.196078%);fill-opacity:1;" d="M 16.339844 27.949219 C 22.234375 27.949219 27.039062 23.167969 27.039062 17.308594 C 27.039062 11.449219 22.234375 6.671875 16.339844 6.671875 C 10.449219 6.671875 5.640625 11.449219 5.640625 17.308594 C 5.640625 23.167969 10.449219 27.949219 16.339844 27.949219 "/>
<path style=" stroke:none;fill-rule:evenodd;fill:rgb(40%,40%,40%);fill-opacity:1;" d="M 24.136719 10.023438 C 25.9375 11.929688 27.039062 14.492188 27.039062 17.308594 C 27.039062 23.1875 22.25 27.949219 16.339844 27.949219 C 12.136719 27.949219 8.5 25.539062 6.75 22.03125 C 8.703125 24.097656 11.472656 25.386719 14.546875 25.386719 C 20.457031 25.386719 25.246094 20.625 25.246094 14.746094 C 25.246094 13.050781 24.847656 11.449219 24.136719 10.023438 "/>
<path style=" stroke:none;fill-rule:evenodd;fill:rgb(60%,60%,60%);fill-opacity:1;" d="M 14.042969 7.839844 C 17.136719 7.839844 18.992188 10.335938 18.191406 13.410156 C 17.386719 16.488281 14.230469 18.980469 11.136719 18.980469 C 8.042969 18.980469 6.183594 16.488281 6.988281 13.410156 C 7.789062 10.335938 10.949219 7.839844 14.042969 7.839844 "/>
<path style=" stroke:none;fill-rule:evenodd;fill:rgb(66.666667%,0%,0%);fill-opacity:1;" d="M 8.292969 3.761719 C 9.425781 3.132812 10.859375 3.535156 11.492188 4.660156 C 11.8125 5.230469 11.867188 5.875 11.699219 6.453125 C 11.480469 7.21875 11.566406 7.953125 11.953125 8.648438 L 12.683594 9.964844 C 13.011719 10.554688 11.613281 11.320312 11.292969 10.738281 L 10.5625 9.421875 C 10.175781 8.726562 9.582031 8.269531 8.8125 8.058594 C 8.226562 7.898438 7.707031 7.515625 7.386719 6.945312 C 6.753906 5.816406 7.15625 4.394531 8.292969 3.761719 "/>
<path style=" stroke:none;fill-rule:evenodd;fill:rgb(66.666667%,0%,0%);fill-opacity:1;" d="M 31.992188 14.992188 C 32.152344 16.277344 31.238281 17.445312 29.949219 17.605469 C 29.296875 17.683594 28.679688 17.496094 28.203125 17.121094 C 27.574219 16.628906 26.855469 16.433594 26.0625 16.527344 L 24.558594 16.707031 C 23.886719 16.785156 23.699219 15.210938 24.363281 15.132812 L 25.863281 14.953125 C 26.65625 14.859375 27.304688 14.488281 27.792969 13.855469 C 28.164062 13.378906 28.714844 13.042969 29.367188 12.960938 C 30.65625 12.800781 31.832031 13.710938 31.992188 14.992188 "/>
<path style=" stroke:none;fill-rule:evenodd;fill:rgb(66.666667%,0%,0%);fill-opacity:1;" d="M 15.757812 33.035156 C 14.460938 32.957031 13.472656 31.847656 13.550781 30.558594 C 13.589844 29.910156 13.894531 29.335938 14.351562 28.941406 C 14.953125 28.414062 15.273438 27.75 15.328125 26.957031 L 15.429688 25.453125 C 15.472656 24.78125 17.066406 24.890625 17.023438 25.550781 L 16.921875 27.050781 C 16.867188 27.84375 17.117188 28.546875 17.652344 29.136719 C 18.058594 29.585938 18.289062 30.191406 18.25 30.839844 C 18.171875 32.128906 17.054688 33.113281 15.757812 33.035156 "/>
<path style=" stroke:none;fill-rule:evenodd;fill:rgb(66.666667%,0%,0%);fill-opacity:1;" d="M 0.675781 19.523438 C 0.523438 18.238281 1.445312 17.074219 2.734375 16.925781 C 3.382812 16.847656 4.003906 17.042969 4.476562 17.417969 C 5.101562 17.914062 5.820312 18.113281 6.613281 18.027344 L 8.117188 17.859375 C 8.792969 17.785156 8.96875 19.363281 8.304688 19.433594 L 6.800781 19.601562 C 6.007812 19.691406 5.355469 20.058594 4.863281 20.6875 C 4.492188 21.164062 3.9375 21.496094 3.285156 21.570312 C 1.996094 21.722656 0.824219 20.804688 0.675781 19.523438 "/>
<path style=" stroke:none;fill-rule:evenodd;fill:rgb(66.666667%,0%,0%);fill-opacity:1;" d="M 21.480469 6.992188 C 22.636719 7.585938 23.089844 8.996094 22.496094 10.144531 C 22.195312 10.722656 21.6875 11.125 21.105469 11.304688 C 20.34375 11.542969 19.777344 12.023438 19.40625 12.726562 L 19.242188 13.039062 C 18.929688 13.636719 17.515625 12.898438 17.824219 12.3125 L 17.988281 12 C 18.359375 11.296875 18.414062 10.554688 18.164062 9.796875 C 17.976562 9.222656 18.011719 8.578125 18.3125 8 C 18.90625 6.851562 20.324219 6.402344 21.480469 6.992188 "/>
<path style=" stroke:none;fill-rule:evenodd;fill:rgb(66.666667%,0%,0%);fill-opacity:1;" d="M 23.785156 26.125 C 22.777344 26.941406 21.296875 26.789062 20.476562 25.789062 C 20.0625 25.28125 19.898438 24.660156 19.964844 24.058594 C 20.050781 23.269531 19.835938 22.558594 19.332031 21.9375 L 19.113281 21.664062 C 18.6875 21.140625 19.933594 20.148438 20.351562 20.664062 L 20.570312 20.9375 C 21.074219 21.558594 21.734375 21.90625 22.53125 21.984375 C 23.132812 22.042969 23.714844 22.332031 24.128906 22.835938 C 24.945312 23.839844 24.792969 25.3125 23.785156 26.125 "/>
<path style=" stroke:none;fill-rule:evenodd;fill:rgb(66.666667%,0%,0%);fill-opacity:1;" d="M 9.464844 26.574219 C 8.433594 25.792969 8.234375 24.324219 9.023438 23.296875 C 9.417969 22.777344 9.992188 22.472656 10.59375 22.394531 C 11.386719 22.292969 12.027344 21.917969 12.515625 21.289062 L 12.730469 21.011719 C 13.144531 20.476562 14.410156 21.449219 14 21.972656 L 13.785156 22.25 C 13.296875 22.882812 13.113281 23.601562 13.222656 24.390625 C 13.308594 24.988281 13.160156 25.617188 12.765625 26.132812 C 11.976562 27.160156 10.5 27.359375 9.464844 26.574219 "/>
<path style=" stroke:none;fill-rule:evenodd;fill:rgb(66.666667%,0%,0%);fill-opacity:1;" d="M 14.640625 19.003906 C 15.921875 19.003906 16.964844 17.964844 16.964844 16.691406 C 16.964844 15.417969 15.921875 14.378906 14.640625 14.378906 C 13.359375 14.378906 12.316406 15.417969 12.316406 16.691406 C 12.316406 17.964844 13.359375 19.003906 14.640625 19.003906 "/>
<path style=" stroke:none;fill-rule:evenodd;fill:rgb(100%,33.333333%,33.333333%);fill-opacity:1;" d="M 22.578125 22.871094 C 21.898438 22.992188 21.34375 23.53125 21.34375 24.078125 C 21.34375 24.621094 21.898438 24.96875 22.578125 24.851562 C 23.257812 24.730469 23.808594 24.191406 23.808594 23.648438 C 23.808594 23.101562 23.257812 22.753906 22.578125 22.871094 M 16.164062 28.917969 C 15.484375 29.035156 14.929688 29.574219 14.929688 30.121094 C 14.929688 30.667969 15.484375 31.011719 16.164062 30.894531 C 16.84375 30.777344 17.394531 30.238281 17.394531 29.691406 C 17.394531 29.144531 16.84375 28.796875 16.164062 28.917969 M 11.179688 23.066406 C 10.496094 23.1875 9.945312 23.726562 9.945312 24.273438 C 9.945312 24.816406 10.496094 25.164062 11.179688 25.046875 C 11.859375 24.925781 12.410156 24.386719 12.410156 23.839844 C 12.410156 23.296875 11.859375 22.949219 11.179688 23.066406 M 4.511719 24.320312 C 3.832031 24.441406 3.28125 24.980469 3.28125 25.523438 C 3.28125 26.070312 3.832031 26.417969 4.511719 26.296875 C 5.191406 26.179688 5.746094 25.640625 5.746094 25.09375 C 5.746094 24.550781 5.191406 24.203125 4.511719 24.320312 M 3.308594 17.609375 C 2.628906 17.726562 2.074219 18.265625 2.074219 18.8125 C 2.074219 19.359375 2.628906 19.703125 3.308594 19.585938 C 3.988281 19.46875 4.539062 18.929688 4.539062 18.382812 C 4.539062 17.835938 3.988281 17.488281 3.308594 17.609375 M 2.738281 10.066406 C 2.058594 10.183594 1.503906 10.722656 1.503906 11.269531 C 1.503906 11.816406 2.058594 12.164062 2.738281 12.042969 C 3.417969 11.925781 3.96875 11.386719 3.96875 10.839844 C 3.96875 10.292969 3.417969 9.949219 2.738281 10.066406 M 9.832031 4.128906 C 9.152344 4.246094 8.601562 4.785156 8.601562 5.332031 C 8.601562 5.878906 9.152344 6.222656 9.832031 6.105469 C 10.515625 5.988281 11.066406 5.449219 11.066406 4.902344 C 11.066406 4.355469 10.515625 4.007812 9.832031 4.128906 M 15.015625 15.019531 C 14.335938 15.136719 13.78125 15.675781 13.78125 16.222656 C 13.78125 16.769531 14.335938 17.113281 15.015625 16.996094 C 15.695312 16.878906 16.246094 16.339844 16.246094 15.792969 C 16.246094 15.246094 15.695312 14.898438 15.015625 15.019531 M 28.699219 6.59375 C 28.015625 6.710938 27.464844 7.25 27.464844 7.796875 C 27.464844 8.34375 28.015625 8.6875 28.699219 8.570312 C 29.378906 8.453125 29.929688 7.914062 29.929688 7.367188 C 29.929688 6.820312 29.378906 6.476562 28.699219 6.59375 M 20.8125 7.1875 C 20.132812 7.304688 19.582031 7.84375 19.582031 8.390625 C 19.582031 8.9375 20.132812 9.28125 20.8125 9.164062 C 21.492188 9.042969 22.046875 8.507812 22.046875 7.960938 C 22.046875 7.414062 21.492188 7.066406 20.8125 7.1875 M 16.667969 0.558594 C 15.988281 0.675781 15.4375 1.214844 15.4375 1.761719 C 15.4375 2.308594 15.988281 2.652344 16.667969 2.535156 C 17.347656 2.417969 17.898438 1.878906 17.898438 1.332031 C 17.898438 0.785156 17.347656 0.4375 16.667969 0.558594 M 29.46875 23.695312 C 28.789062 23.8125 28.234375 24.351562 28.234375 24.898438 C 28.234375 25.445312 28.789062 25.789062 29.46875 25.671875 C 30.148438 25.554688 30.699219 25.015625 30.699219 24.46875 C 30.699219 23.921875 30.148438 23.574219 29.46875 23.695312 M 30.195312 13.515625 C 29.515625 13.632812 28.964844 14.171875 28.964844 14.71875 C 28.964844 15.265625 29.515625 15.609375 30.195312 15.492188 C 30.875 15.375 31.429688 14.835938 31.429688 14.289062 C 31.429688 13.742188 30.875 13.394531 30.195312 13.515625 "/>
<path style=" stroke:none;fill-rule:nonzero;fill:rgb(100%,30.196078%,0%);fill-opacity:1;" d="M 8.898438 21.109375 C 8.660156 20.71875 8.160156 20.585938 7.78125 20.816406 C 7.402344 21.046875 7.289062 21.546875 7.53125 21.941406 C 7.769531 22.332031 8.269531 22.464844 8.648438 22.234375 C 9.027344 22.007812 9.140625 21.503906 8.898438 21.109375 Z M 8.898438 21.109375 "/>
<path style=" stroke:none;fill-rule:nonzero;fill:rgb(100%,30.196078%,0%);fill-opacity:1;" d="M 10.113281 20.375 C 9.875 19.984375 9.375 19.851562 8.996094 20.082031 C 8.617188 20.308594 8.503906 20.8125 8.746094 21.207031 C 8.984375 21.597656 9.484375 21.730469 9.863281 21.5 C 10.242188 21.269531 10.355469 20.769531 10.113281 20.375 Z M 10.113281 20.375 "/>
<path style=" stroke:none;fill-rule:nonzero;fill:rgb(100%,30.196078%,0%);fill-opacity:1;" d="M 23.125 13.273438 C 23.125 12.8125 22.765625 12.441406 22.324219 12.441406 C 21.878906 12.441406 21.519531 12.8125 21.519531 13.273438 C 21.519531 13.730469 21.878906 14.105469 22.324219 14.105469 C 22.765625 14.105469 23.125 13.730469 23.125 13.273438 Z M 23.125 13.273438 "/>
<path style=" stroke:none;fill-rule:nonzero;fill:rgb(100%,30.196078%,0%);fill-opacity:1;" d="M 24.546875 13.273438 C 24.546875 12.8125 24.1875 12.441406 23.746094 12.441406 C 23.300781 12.441406 22.941406 12.8125 22.941406 13.273438 C 22.941406 13.730469 23.300781 14.105469 23.746094 14.105469 C 24.1875 14.105469 24.546875 13.730469 24.546875 13.273438 Z M 24.546875 13.273438 "/>
<path style=" stroke:none;fill-rule:nonzero;fill:rgb(100%,30.196078%,0%);fill-opacity:1;" d="M 18.738281 17.265625 C 19.121094 17.011719 19.238281 16.507812 18.992188 16.140625 C 18.75 15.773438 18.238281 15.679688 17.855469 15.933594 C 17.46875 16.1875 17.351562 16.6875 17.597656 17.058594 C 17.839844 17.425781 18.351562 17.519531 18.738281 17.265625 Z M 18.738281 17.265625 "/>
<path style=" stroke:none;fill-rule:nonzero;fill:rgb(100%,30.196078%,0%);fill-opacity:1;" d="M 19.519531 18.445312 C 19.90625 18.191406 20.019531 17.691406 19.777344 17.324219 C 19.53125 16.953125 19.023438 16.863281 18.636719 17.113281 C 18.25 17.367188 18.136719 17.871094 18.378906 18.238281 C 18.625 18.605469 19.132812 18.699219 19.519531 18.445312 Z M 19.519531 18.445312 "/>
<path style=" stroke:none;fill-rule:nonzero;fill:rgb(100%,30.196078%,0%);fill-opacity:1;" d="M 9.941406 13.945312 C 9.941406 13.488281 9.582031 13.113281 9.140625 13.113281 C 8.695312 13.113281 8.335938 13.488281 8.335938 13.945312 C 8.335938 14.40625 8.695312 14.777344 9.140625 14.777344 C 9.582031 14.777344 9.941406 14.40625 9.941406 13.945312 Z M 9.941406 13.945312 "/>
<path style=" stroke:none;fill-rule:nonzero;fill:rgb(100%,30.196078%,0%);fill-opacity:1;" d="M 11.363281 13.945312 C 11.363281 13.488281 11.003906 13.113281 10.5625 13.113281 C 10.117188 13.113281 9.757812 13.488281 9.757812 13.945312 C 9.757812 14.40625 10.117188 14.777344 10.5625 14.777344 C 11.003906 14.777344 11.363281 14.40625 11.363281 13.945312 Z M 11.363281 13.945312 "/>
<path style=" stroke:none;fill-rule:nonzero;fill:rgb(100%,30.196078%,0%);fill-opacity:1;" d="M 16.757812 23.824219 C 16.953125 23.410156 16.785156 22.921875 16.382812 22.734375 C 15.980469 22.546875 15.496094 22.734375 15.300781 23.152344 C 15.105469 23.566406 15.273438 24.054688 15.675781 24.242188 C 16.078125 24.425781 16.5625 24.242188 16.757812 23.824219 Z M 16.757812 23.824219 "/>
<path style=" stroke:none;fill-rule:nonzero;fill:rgb(100%,30.196078%,0%);fill-opacity:1;" d="M 18.046875 24.421875 C 18.242188 24.007812 18.074219 23.519531 17.671875 23.332031 C 17.269531 23.144531 16.785156 23.332031 16.589844 23.75 C 16.394531 24.164062 16.5625 24.652344 16.964844 24.839844 C 17.367188 25.023438 17.851562 24.839844 18.046875 24.421875 Z M 18.046875 24.421875 "/>
<path style=" stroke:none;fill-rule:nonzero;fill:rgb(100%,30.196078%,0%);fill-opacity:1;" d="M 23.90625 19.863281 C 24.300781 19.625 24.433594 19.125 24.203125 18.75 C 23.972656 18.375 23.464844 18.261719 23.070312 18.503906 C 22.675781 18.742188 22.542969 19.242188 22.773438 19.617188 C 23.003906 19.992188 23.511719 20.105469 23.90625 19.863281 Z M 23.90625 19.863281 "/>
<path style=" stroke:none;fill-rule:nonzero;fill:rgb(100%,30.196078%,0%);fill-opacity:1;" d="M 24.648438 21.070312 C 25.039062 20.832031 25.171875 20.335938 24.941406 19.957031 C 24.710938 19.582031 24.207031 19.472656 23.8125 19.710938 C 23.417969 19.949219 23.285156 20.449219 23.515625 20.824219 C 23.746094 21.199219 24.253906 21.3125 24.648438 21.070312 Z M 24.648438 21.070312 "/>
<path style=" stroke:none;fill-rule:nonzero;fill:rgb(100%,63.529412%,47.843137%);fill-opacity:1;" d="M 24.632812 20.6875 C 24.875 20.542969 24.964844 20.253906 24.835938 20.042969 C 24.707031 19.835938 24.410156 19.78125 24.167969 19.929688 C 23.925781 20.074219 23.835938 20.363281 23.964844 20.574219 C 24.09375 20.78125 24.394531 20.835938 24.632812 20.6875 Z M 24.632812 20.6875 "/>
<path style=" stroke:none;fill-rule:nonzero;fill:rgb(100%,30.196078%,0%);fill-opacity:1;" d="M 16.15625 10.140625 C 16.457031 9.789062 16.425781 9.277344 16.085938 8.988281 C 15.75 8.703125 15.234375 8.753906 14.933594 9.105469 C 14.636719 9.453125 14.664062 9.96875 15.003906 10.253906 C 15.339844 10.539062 15.855469 10.488281 16.15625 10.140625 Z M 16.15625 10.140625 "/>
<path style=" stroke:none;fill-rule:nonzero;fill:rgb(100%,30.196078%,0%);fill-opacity:1;" d="M 17.238281 11.058594 C 17.539062 10.707031 17.507812 10.195312 17.167969 9.90625 C 16.832031 9.621094 16.316406 9.671875 16.015625 10.023438 C 15.71875 10.371094 15.746094 10.886719 16.085938 11.171875 C 16.421875 11.457031 16.9375 11.40625 17.238281 11.058594 Z M 17.238281 11.058594 "/>
<path style=" stroke:none;fill-rule:nonzero;fill:rgb(100%,63.529412%,47.843137%);fill-opacity:1;" d="M 23.921875 19.511719 C 24.164062 19.363281 24.253906 19.074219 24.125 18.867188 C 23.996094 18.65625 23.699219 18.605469 23.457031 18.75 C 23.214844 18.898438 23.125 19.183594 23.253906 19.394531 C 23.382812 19.605469 23.683594 19.65625 23.921875 19.511719 Z M 23.921875 19.511719 "/>
<path style=" stroke:none;fill-rule:nonzero;fill:rgb(100%,63.529412%,47.843137%);fill-opacity:1;" d="M 23.921875 13.382812 C 24.164062 13.234375 24.253906 12.945312 24.125 12.738281 C 23.996094 12.527344 23.699219 12.476562 23.457031 12.621094 C 23.214844 12.769531 23.125 13.054688 23.253906 13.265625 C 23.382812 13.476562 23.683594 13.527344 23.921875 13.382812 Z M 23.921875 13.382812 "/>
<path style=" stroke:none;fill-rule:nonzero;fill:rgb(100%,63.529412%,47.843137%);fill-opacity:1;" d="M 22.5 13.382812 C 22.742188 13.234375 22.832031 12.945312 22.703125 12.738281 C 22.574219 12.527344 22.277344 12.476562 22.035156 12.621094 C 21.792969 12.769531 21.703125 13.054688 21.832031 13.265625 C 21.960938 13.476562 22.261719 13.527344 22.5 13.382812 Z M 22.5 13.382812 "/>
<path style=" stroke:none;fill-rule:nonzero;fill:rgb(100%,63.529412%,47.843137%);fill-opacity:1;" d="M 19.417969 17.859375 C 19.660156 17.714844 19.75 17.425781 19.621094 17.214844 C 19.492188 17.003906 19.195312 16.953125 18.953125 17.101562 C 18.710938 17.246094 18.621094 17.535156 18.75 17.746094 C 18.878906 17.953125 19.179688 18.007812 19.417969 17.859375 Z M 19.417969 17.859375 "/>
<path style=" stroke:none;fill-rule:nonzero;fill:rgb(100%,63.529412%,47.843137%);fill-opacity:1;" d="M 18.707031 16.679688 C 18.949219 16.535156 19.039062 16.246094 18.910156 16.035156 C 18.78125 15.828125 18.484375 15.777344 18.242188 15.921875 C 18 16.066406 17.910156 16.355469 18.039062 16.566406 C 18.167969 16.777344 18.46875 16.828125 18.707031 16.679688 Z M 18.707031 16.679688 "/>
<path style=" stroke:none;fill-rule:nonzero;fill:rgb(100%,63.529412%,47.843137%);fill-opacity:1;" d="M 17.050781 10.789062 C 17.289062 10.640625 17.382812 10.355469 17.253906 10.144531 C 17.125 9.933594 16.824219 9.882812 16.582031 10.027344 C 16.34375 10.175781 16.25 10.464844 16.378906 10.671875 C 16.507812 10.882812 16.808594 10.933594 17.050781 10.789062 Z M 17.050781 10.789062 "/>
<path style=" stroke:none;fill-rule:nonzero;fill:rgb(100%,63.529412%,47.843137%);fill-opacity:1;" d="M 15.863281 9.84375 C 16.105469 9.699219 16.195312 9.410156 16.066406 9.199219 C 15.9375 8.992188 15.640625 8.941406 15.398438 9.085938 C 15.15625 9.230469 15.066406 9.519531 15.195312 9.730469 C 15.324219 9.941406 15.621094 9.992188 15.863281 9.84375 Z M 15.863281 9.84375 "/>
<path style=" stroke:none;fill-rule:nonzero;fill:rgb(100%,63.529412%,47.843137%);fill-opacity:1;" d="M 9.699219 20.925781 C 9.941406 20.777344 10.03125 20.488281 9.902344 20.28125 C 9.777344 20.070312 9.476562 20.019531 9.234375 20.164062 C 8.992188 20.3125 8.902344 20.597656 9.03125 20.808594 C 9.160156 21.019531 9.460938 21.070312 9.699219 20.925781 Z M 9.699219 20.925781 "/>
<path style=" stroke:none;fill-rule:nonzero;fill:rgb(100%,63.529412%,47.843137%);fill-opacity:1;" d="M 8.515625 21.632812 C 8.757812 21.484375 8.847656 21.195312 8.71875 20.988281 C 8.589844 20.777344 8.289062 20.726562 8.050781 20.871094 C 7.808594 21.019531 7.71875 21.304688 7.847656 21.515625 C 7.976562 21.726562 8.273438 21.777344 8.515625 21.632812 Z M 8.515625 21.632812 "/>
<path style=" stroke:none;fill-rule:nonzero;fill:rgb(100%,63.529412%,47.843137%);fill-opacity:1;" d="M 9.464844 14.089844 C 9.703125 13.941406 9.796875 13.652344 9.667969 13.445312 C 9.539062 13.234375 9.238281 13.183594 8.996094 13.328125 C 8.757812 13.476562 8.664062 13.765625 8.792969 13.972656 C 8.921875 14.183594 9.222656 14.234375 9.464844 14.089844 Z M 9.464844 14.089844 "/>
<path style=" stroke:none;fill-rule:nonzero;fill:rgb(100%,63.529412%,47.843137%);fill-opacity:1;" d="M 10.886719 14.089844 C 11.128906 13.941406 11.21875 13.652344 11.089844 13.445312 C 10.960938 13.234375 10.660156 13.183594 10.421875 13.328125 C 10.179688 13.476562 10.085938 13.765625 10.214844 13.972656 C 10.34375 14.183594 10.644531 14.234375 10.886719 14.089844 Z M 10.886719 14.089844 "/>
<path style=" stroke:none;fill-rule:nonzero;fill:rgb(100%,63.529412%,47.843137%);fill-opacity:1;" d="M 16.335938 23.753906 C 16.578125 23.605469 16.671875 23.316406 16.542969 23.109375 C 16.414062 22.898438 16.113281 22.847656 15.871094 22.992188 C 15.628906 23.140625 15.539062 23.429688 15.667969 23.636719 C 15.796875 23.847656 16.097656 23.898438 16.335938 23.753906 Z M 16.335938 23.753906 "/>
<path style=" stroke:none;fill-rule:nonzero;fill:rgb(100%,63.529412%,47.843137%);fill-opacity:1;" d="M 17.523438 24.460938 C 17.765625 24.3125 17.855469 24.023438 17.726562 23.816406 C 17.597656 23.605469 17.296875 23.554688 17.058594 23.699219 C 16.816406 23.847656 16.726562 24.136719 16.855469 24.34375 C 16.980469 24.554688 17.28125 24.605469 17.523438 24.460938 Z M 17.523438 24.460938 "/>
</g>
</svg>
